<?xml version="1.0" standalone="no"?>
<!DOCTYPE svg PUBLIC "-//W3C//DTD SVG 20010904//EN"
 "http://www.w3.org/TR/2001/REC-SVG-20010904/DTD/svg10.dtd">
<svg version="1.0" xmlns="http://www.w3.org/2000/svg"
 width="510.000000pt" height="510.000000pt" viewBox="0 0 510.000000 510.000000"
 preserveAspectRatio="xMidYMid meet">
<metadata>
Created by potrace 1.14, written by Peter Selinger 2001-2017
</metadata>
<g transform="translate(0.000000,510.000000) scale(0.100000,-0.100000)"
fill="#000000" stroke="none">
<path d="M2358 4885 c-118 -121 -255 -263 -305 -315 -50 -53 -96 -94 -102 -92
-7 2 -62 56 -124 119 -62 63 -141 143 -176 177 -35 33 -74 72 -85 85 -12 13
-66 70 -122 127 -92 95 -124 119 -124 95 0 -5 -93 -103 -207 -219 -277 -281
-437 -446 -558 -578 -55 -59 -178 -186 -273 -280 l-172 -172 120 -124 c67 -68
158 -163 203 -212 45 -49 128 -136 185 -193 56 -57 102 -106 102 -108 0 -2
-39 -44 -86 -92 -47 -48 -103 -108 -123 -132 -20 -25 -70 -79 -111 -122 -41
-42 -119 -122 -173 -178 -54 -56 -102 -101 -107 -101 -6 0 -10 -7 -10 -16 0
-8 4 -13 9 -10 5 3 44 -31 86 -77 43 -45 126 -132 184 -193 58 -61 149 -157
201 -214 52 -57 103 -112 113 -122 9 -10 17 -20 17 -23 0 -6 -86 -92 -98 -97
-4 -2 -31 -30 -61 -63 -130 -143 -282 -304 -364 -385 l-88 -86 90 -90 c49 -49
111 -110 138 -135 26 -25 82 -83 123 -129 141 -155 225 -243 452 -474 125
-127 275 -279 333 -338 58 -59 105 -103 105 -97 0 14 594 619 609 619 4 0 49
-45 101 -101 52 -56 131 -138 175 -183 44 -45 138 -142 209 -215 114 -117 130
-131 139 -115 6 10 45 53 86 96 89 90 282 289 397 409 119 124 102 120 175 43
35 -37 109 -111 164 -165 55 -54 103 -102 108 -106 155 -159 265 -279 261
-285 -3 -4 -1 -8 5 -8 5 0 14 7 19 16 9 15 281 303 310 328 15 12 235 235 333
337 35 36 104 110 154 165 49 54 161 170 248 256 89 88 157 163 155 171 -1 8
-79 94 -173 191 -93 98 -190 200 -215 228 -25 28 -80 85 -122 126 -43 42 -78
79 -78 84 0 5 38 48 84 96 47 48 95 100 108 117 23 29 172 185 321 335 42 43
77 86 77 96 0 9 -38 56 -84 103 -160 163 -319 331 -333 351 -7 10 -49 56 -93
101 -44 45 -80 84 -80 88 1 9 42 53 80 85 19 16 55 52 79 80 24 28 129 140
235 249 105 109 192 206 194 216 2 11 -44 63 -125 142 -70 69 -163 164 -207
210 -193 206 -385 407 -564 588 -106 107 -221 225 -254 262 l-61 67 -136 -140
c-403 -414 -480 -488 -493 -474 -47 50 -221 231 -381 397 -103 107 -192 201
-197 209 -7 11 -58 -37 -222 -205z"/>
</g>
</svg>
